<svg xmlns="http://www.w3.org/2000/svg" version="1.1" xmlns:xlink="http://www.w3.org/1999/xlink" xmlns:svgjs="http://svgjs.com/svgjs" width="1440" height="560" preserveAspectRatio="none" viewBox="0 0 1440 560"><g mask="url(&quot;#SvgjsMask1010&quot;)" fill="none"><rect width="1440" height="560" x="0" y="0" fill="rgba(28, 0, 33, 1)"></rect><path d="M0,370.347C72.824,371.714,157.077,376.509,209.411,325.85C261.532,275.397,234.127,186.503,259.952,118.716C283.36,57.272,363.308,14.184,352.88,-50.736C342.424,-115.834,262.715,-141.761,211.453,-183.225C169.494,-217.164,130.02,-251.984,79.763,-271.648C25.759,-292.779,-31.69,-313.375,-88.23,-300.484C-146.173,-287.273,-188.946,-242.069,-231.579,-200.664C-277.844,-155.732,-336.707,-113.565,-346.349,-49.797C-356.001,14.039,-304.586,68.252,-281.347,128.487C-256.29,193.434,-257.209,272.703,-204.42,318.083C-149.984,364.879,-71.773,369,0,370.347" fill="#16001a"></path><path d="M1440 996.471C1527.506 984.758 1617.937 999.242 1696.876 959.707 1780.888 917.631 1846.267 847.995 1895.836 768.174 1950.469 680.197 2023.278 579.773 1994.613 480.259 1965.665 379.76300000000003 1824.008 365.619 1756.798 285.493 1687.838 203.281 1705.7269999999999 35.214000000000055 1601.148 11.182000000000016 1494.071-13.423999999999978 1435.125 153.586 1330.642 187.562 1231.176 219.90699999999998 1109.637 139.808 1023.434 199.043 936.879 258.52 915.075 378.435 901.351 482.554 887.734 585.864 905.567 689.558 946.127 785.544 987.539 883.546 1036.929 993.159 1134.771 1034.946 1231.028 1076.056 1336.257 1010.357 1440 996.471" fill="#220028"></path></g><defs><mask id="SvgjsMask1010"><rect width="1440" height="560" fill="#ffffff"></rect></mask></defs></svg>